<?xml version="1.0" encoding="UTF-8"?>
<svg xmlns="http://www.w3.org/2000/svg" width="1000" height="520" viewBox="0 0 1000 520">
<rect width="1000" height="520" fill="#0b1120" />
<text x="40" y="40" fill="#f8fafc" font-size="22" font-family="Arial">Anomaly Detection (Isolation Forest)</text>
<path d="M 60.00 435.98 L 61.01 366.31 L 62.03 393.93 L 63.04 339.88 L 64.06 407.15 L 65.07 259.40 L 66.08 313.45 L 67.10 446.79 L 68.11 273.81 L 69.12 232.97 L 70.14 300.24 L 71.15 383.12 L 72.17 326.67 L 73.18 193.33 L 74.19 353.09 L 75.21 393.93 L 76.22 287.03 L 77.24 246.19 L 78.25 339.88 L 79.26 420.36 L 80.28 206.55 L 81.29 273.81 L 82.30 460.00 L 83.32 313.45 L 84.33 180.12 L 85.35 326.67 L 86.36 407.15 L 87.37 366.31 L 88.39 219.76 L 89.40 300.24 L 90.41 433.57 L 91.43 273.81 L 92.44 232.97 L 93.46 339.88 L 94.47 393.93 L 95.48 287.03 L 96.50 206.55 L 97.51 353.09 L 98.53 420.36 L 99.54 313.45 L 100.55 166.91 L 101.57 273.81 L 102.58 446.79 L 103.59 339.88 L 104.61 246.19 L 105.62 300.24 L 106.64 393.93 L 107.65 326.67 L 108.66 219.76 L 109.68 287.03 L 110.69 433.57 L 111.71 366.31 L 112.72 206.55 L 113.73 273.81 L 114.75 407.15 L 115.76 339.88 L 116.77 193.33 L 117.79 300.24 L 118.80 446.79 L 119.82 353.09 L 120.83 246.19 L 121.84 273.81 L 122.86 420.36 L 123.87 313.45 L 124.88 219.76 L 125.90 287.03 L 126.91 393.93 L 127.93 326.67 L 128.94 180.12 L 129.95 353.09 L 130.97 407.15 L 131.98 366.31 L 133.00 206.55 L 134.01 273.81 L 135.02 433.57 L 136.04 300.24 L 137.05 232.97 L 138.06 339.88 L 139.08 393.93 L 140.09 287.03 L 141.11 193.33 L 142.12 326.67 L 143.13 420.36 L 144.15 273.81 L 145.16 219.76 L 146.18 366.31 L 147.19 407.15 L 148.20 313.45 L 149.22 206.55 L 150.23 353.09 L 151.24 393.93 L 152.26 300.24 L 153.27 246.19 L 154.29 339.88 L 155.30 433.57 L 156.31 273.81 L 157.33 193.33 L 158.34 326.67 L 159.35 407.15 L 160.37 366.31 L 161.38 219.76 L 162.40 300.24 L 163.41 393.93 L 164.42 353.09 L 165.44 206.55 L 166.45 287.03 L 167.47 420.36 L 168.48 339.88 L 169.49 246.19 L 170.51 273.81 L 171.52 446.79 L 172.53 313.45 L 173.55 180.12 L 174.56 353.09 L 175.58 407.15 L 176.59 326.67 L 177.60 219.76 L 178.62 300.24 L 179.63 393.93 L 180.65 366.31 L 181.66 232.97 L 182.67 287.03 L 183.69 433.57 L 184.70 339.88 L 185.71 206.55 L 186.73 273.81 L 187.74 420.36 L 188.76 313.45 L 189.77 246.19 L 190.78 353.09 L 191.80 393.93 L 192.81 300.24 L 193.82 219.76 L 194.84 326.67 L 195.85 407.15 L 196.87 366.31 L 197.88 193.33 L 198.89 273.81 L 199.91 446.79 L 200.92 339.88 L 201.94 232.97 L 202.95 287.03 L 203.96 420.36 L 204.98 313.45 L 205.99 206.55 L 207.00 353.09 L 208.02 393.93 L 209.03 300.24 L 210.05 246.19 L 211.06 326.67 L 212.07 407.15 L 213.09 273.81 L 214.10 219.76 L 215.12 366.31 L 216.13 433.57 L 217.14 339.88 L 218.16 180.12 L 219.17 287.03 L 220.18 393.93 L 221.20 313.45 L 222.21 232.97 L 223.23 326.67 L 224.24 420.36 L 225.25 273.81 L 226.27 193.33 L 227.28 353.09 L 228.29 407.15 L 229.31 300.24 L 230.32 219.76 L 231.34 366.31 L 232.35 393.93 L 233.36 326.67 L 234.38 206.55 L 235.39 287.03 L 236.41 433.57 L 237.42 339.88 L 238.43 246.19 L 239.45 273.81 L 240.46 420.36 L 241.47 313.45 L 242.49 232.97 L 243.50 326.67 L 244.52 407.15 L 245.53 366.31 L 246.54 193.33 L 247.56 300.24 L 248.57 393.93 L 249.59 353.09 L 250.60 219.76 L 251.61 287.03 L 252.63 446.79 L 253.64 273.81 L 254.65 206.55 L 255.67 313.45 L 256.68 420.36 L 257.70 339.88 L 258.71 246.19 L 259.72 326.67 L 260.74 407.15 L 261.75 300.24 L 262.76 193.33 L 263.78 273.81 L 264.79 433.57 L 265.81 353.09 L 266.82 219.76 L 267.83 287.03 L 268.85 393.93 L 269.86 366.31 L 270.88 206.55 L 271.89 313.45 L 272.90 420.36 L 273.92 339.88 L 274.93 246.19 L 275.94 273.81 L 276.96 407.15 L 277.97 326.67 L 278.99 193.33 L 280.00 353.09 L 281.01 393.93 L 282.03 300.24 L 283.04 219.76 L 284.06 366.31 L 285.07 433.57 L 286.08 287.03 L 287.10 206.55 L 288.11 273.81 L 289.12 420.36 L 290.14 339.88 L 291.15 232.97 L 292.17 313.45 L 293.18 407.15 L 294.19 326.67 L 295.21 246.19 L 296.22 300.24 L 297.24 393.93 L 298.25 353.09 L 299.26 193.33 L 300.28 287.03 L 301.29 446.79 L 302.30 273.81 L 303.32 219.76 L 304.33 273.81 L 305.35 246.19 L 306.36 180.12 L 307.37 326.67 L 308.39 153.69 L 309.40 287.03 L 310.41 232.97 L 311.43 126.07 L 312.44 206.55 L 313.46 273.81 L 314.47 180.12 L 315.48 112.85 L 316.50 193.33 L 317.51 339.88 L 318.53 166.91 L 319.54 86.43 L 320.55 246.19 L 321.57 273.81 L 322.58 219.76 L 323.59 73.21 L 324.61 180.12 L 325.62 313.45 L 326.64 153.69 L 327.65 126.07 L 328.66 206.55 L 329.68 287.03 L 330.69 232.97 L 331.71 99.64 L 332.72 180.12 L 333.73 273.81 L 334.75 193.33 L 335.76 112.85 L 336.77 166.91 L 337.79 326.67 L 338.80 246.19 L 339.82 86.43 L 340.83 153.69 L 341.84 300.24 L 342.86 219.76 L 343.87 73.21 L 344.88 206.55 L 345.90 273.81 L 346.91 166.91 L 347.93 126.07 L 348.94 180.12 L 349.95 339.88 L 350.97 153.69 L 351.98 112.85 L 353.00 193.33 L 354.01 287.03 L 355.02 206.55 L 356.04 99.64 L 357.05 246.19 L 358.06 300.24 L 359.08 153.69 L 360.09 86.43 L 361.11 193.33 L 362.12 273.81 L 363.13 219.76 L 364.15 126.07 L 365.16 180.12 L 366.18 326.67 L 367.19 166.91 L 368.20 99.64 L 369.22 232.97 L 370.23 273.81 L 371.24 193.33 L 372.26 60.00 L 373.27 206.55 L 374.29 287.03 L 375.30 246.19 L 376.31 112.85 L 377.33 153.69 L 378.34 313.45 L 379.35 180.12 L 380.37 86.43 L 381.38 219.76 L 382.40 273.81 L 383.41 193.33 L 384.42 126.07 L 385.44 206.55 L 386.45 300.24 L 387.47 166.91 L 388.48 99.64 L 389.49 232.97 L 390.51 273.81 L 391.52 193.33 L 392.53 60.00 L 393.55 206.55 L 394.56 287.03 L 395.58 246.19 L 396.59 112.85 L 397.60 153.69 L 398.62 326.67 L 399.63 180.12 L 400.65 99.64 L 401.66 193.33 L 402.67 287.03 L 403.69 206.55 L 404.70 126.07 L 405.71 232.97 L 406.73 273.81 L 407.74 153.69 L 408.76 73.21 L 409.77 180.12 L 410.78 339.88 L 411.80 206.55 L 412.81 112.85 L 413.82 166.91 L 414.84 273.81 L 415.85 193.33 L 416.87 99.64 L 417.88 246.19 L 418.89 300.24 L 419.91 153.69 L 420.92 86.43 L 421.94 219.76 L 422.95 287.03 L 423.96 193.33 L 424.98 126.07 L 425.99 180.12 L 427.00 326.67 L 428.02 232.97 L 429.03 99.64 L 430.05 153.69 L 431.06 313.45 L 432.07 166.91 L 433.09 112.85 L 434.10 206.55 L 435.12 273.81 L 436.13 246.19 L 437.14 73.21 L 438.16 180.12 L 439.17 339.88 L 440.18 153.69 L 441.20 86.43 L 442.21 219.76 L 443.23 287.03 L 444.24 193.33 L 445.25 126.07 L 446.27 206.55 L 447.28 300.24 L 448.29 166.91 L 449.31 99.64 L 450.32 232.97 L 451.34 273.81 L 452.35 180.12 L 453.36 73.21 L 454.38 206.55 L 455.39 339.88 L 456.41 246.19 L 457.42 112.85 L 458.43 153.69 L 459.45 313.45 L 460.46 219.76 L 461.47 86.43 L 462.49 180.12 L 463.50 287.03 L 464.52 193.33 L 465.53 126.07 L 466.54 232.97 L 467.56 273.81 L 468.57 166.91 L 469.59 99.64 L 470.60 206.55 L 471.61 300.24 L 472.63 153.69 L 473.64 112.85 L 474.65 193.33 L 475.67 326.67 L 476.68 246.19 L 477.70 60.00 L 478.71 219.76 L 479.72 287.03 L 480.74 180.12 L 481.75 86.43 L 482.76 153.69 L 483.78 313.45 L 484.79 232.97 L 485.81 126.07 L 486.82 206.55 L 487.83 273.81 L 488.85 166.91 L 489.86 99.64 L 490.88 193.33 L 491.89 300.24 L 492.90 232.97 L 493.92 73.21 L 494.93 206.55 L 495.94 287.03 L 496.96 153.69 L 497.97 112.85 L 498.99 246.19 L 500.00 326.67 L 501.01 180.12 L 502.03 99.64 L 503.04 166.91 L 504.06 273.81 L 505.07 193.33 L 506.08 86.43 L 507.10 219.76 L 508.11 300.24 L 509.12 232.97 L 510.14 126.07 L 511.15 153.69 L 512.17 313.45 L 513.18 206.55 L 514.19 60.00 L 515.21 193.33 L 516.22 287.03 L 517.24 219.76 L 518.25 112.85 L 519.26 180.12 L 520.28 273.81 L 521.29 246.19 L 522.30 86.43 L 523.32 166.91 L 524.33 339.88 L 525.35 153.69 L 526.36 73.21 L 527.37 206.55 L 528.39 300.24 L 529.40 232.97 L 530.41 99.64 L 531.43 193.33 L 532.44 273.81 L 533.46 180.12 L 534.47 126.07 L 535.48 206.55 L 536.50 287.03 L 537.51 219.76 L 538.53 86.43 L 539.54 153.69 L 540.55 313.45 L 541.57 166.91 L 542.58 112.85 L 543.59 180.12 L 544.61 326.67 L 545.62 193.33 L 546.64 126.07 L 547.65 232.97 L 548.66 273.81 L 549.68 206.55 L 550.69 99.64 L 551.71 166.91 L 552.72 300.24 L 553.73 153.69 L 554.75 73.21 L 555.76 219.76 L 556.77 287.03 L 557.79 206.55 L 558.80 112.85 L 559.82 180.12 L 560.83 313.45 L 561.84 246.19 L 562.86 86.43 L 563.87 153.69 L 564.88 339.88 L 565.90 193.33 L 566.91 99.64 L 567.93 166.91 L 568.94 273.81 L 569.95 232.97 L 570.97 126.07 L 571.98 206.55 L 573.00 300.24 L 574.01 219.76 L 575.02 73.21 L 576.04 153.69 L 577.05 287.03 L 578.06 180.12 L 579.08 112.85 L 580.09 206.55 L 581.11 273.81 L 582.12 246.19 L 583.13 99.64 L 584.15 166.91 L 585.16 326.67 L 586.18 153.69 L 587.19 86.43 L 588.20 193.33 L 589.22 300.24 L 590.23 219.76 L 591.24 126.07 L 592.26 206.55 L 593.27 287.03 L 594.29 180.12 L 595.30 112.85 L 596.31 153.69 L 597.33 313.45 L 598.34 219.76 L 599.35 73.21 L 600.37 166.91 L 601.38 273.81 L 602.40 206.55 L 603.41 126.07 L 604.42 180.12 L 605.44 339.88 L 606.45 153.69 L 607.47 99.64 L 608.48 193.33 L 609.49 287.03 L 610.51 232.97 L 611.52 86.43 L 612.53 180.12 L 613.55 313.45 L 614.56 219.76 L 615.58 126.07 L 616.59 153.69 L 617.60 273.81 L 618.62 206.55 L 619.63 112.85 L 620.65 166.91 L 621.66 300.24 L 622.67 193.33 L 623.69 99.64 L 624.70 246.19 L 625.71 326.67 L 626.73 153.69 L 627.74 73.21 L 628.76 219.76 L 629.77 287.03 L 630.78 180.12 L 631.80 126.07 L 632.81 206.55 L 633.82 273.81 L 634.84 166.91 L 635.85 112.85 L 636.87 193.33 L 637.88 300.24 L 638.89 219.76 L 639.91 86.43 L 640.92 153.69 L 641.94 313.45 L 642.95 232.97 L 643.96 126.07 L 644.98 180.12 L 645.99 273.81 L 647.00 206.55 L 648.02 99.64 L 649.03 166.91 L 650.05 339.88 L 651.06 193.33 L 652.07 112.85 L 653.09 153.69 L 654.10 287.03 L 655.12 206.55 L 656.13 126.07 L 657.14 219.76 L 658.16 300.24 L 659.17 166.91 L 660.18 86.43 L 661.20 193.33 L 662.21 273.81 L 663.23 232.97 L 664.24 99.64 L 665.25 180.12 L 666.27 326.67 L 667.28 153.69 L 668.29 126.07 L 669.31 206.55 L 670.32 287.03 L 671.34 219.76 L 672.35 73.21 L 673.36 180.12 L 674.38 273.81 L 675.39 166.91 L 676.41 112.85 L 677.42 193.33 L 678.43 300.24 L 679.45 206.55 L 680.46 99.64 L 681.47 153.69 L 682.49 313.45 L 683.50 232.97 L 684.52 86.43 L 685.53 180.12 L 686.54 287.03 L 687.56 219.76 L 688.57 126.07 L 689.59 193.33 L 690.60 273.81 L 691.61 206.55 L 692.63 99.64 L 693.64 166.91 L 694.65 300.24 L 695.67 153.69 L 696.68 112.85 L 697.70 193.33 L 698.71 326.67 L 699.72 219.76 L 700.74 86.43 L 701.75 180.12 L 702.76 273.81 L 703.78 232.97 L 704.79 126.07 L 705.81 166.91 L 706.82 313.45 L 707.83 206.55 L 708.85 99.64 L 709.86 180.12 L 710.88 287.03 L 711.89 153.69 L 712.90 112.85 L 713.92 193.33 L 714.93 300.24 L 715.94 219.76 L 716.96 126.07 L 717.97 206.55 L 718.99 273.81 L 720.00 166.91 L 721.01 99.64 L 722.03 180.12 L 723.04 313.45 L 724.06 232.97 L 725.07 86.43 L 726.08 153.69 L 727.10 287.03 L 728.11 193.33 L 729.12 126.07 L 730.14 206.55 L 731.15 300.24 L 732.17 219.76 L 733.18 112.85 L 734.19 166.91 L 735.21 273.81 L 736.22 180.12 L 737.24 86.43 L 738.25 193.33 L 739.26 287.03 L 740.28 153.69 L 741.29 126.07 L 742.30 219.76 L 743.32 300.24 L 744.33 206.55 L 745.35 73.21 L 746.36 166.91 L 747.37 273.81 L 748.39 232.97 L 749.40 99.64 L 750.41 180.12 L 751.43 313.45 L 752.44 153.69 L 753.46 112.85 L 754.47 206.55 L 755.48 287.03 L 756.50 219.76 L 757.51 126.07 L 758.53 180.12 L 759.54 273.81 L 760.55 193.33 L 761.57 86.43 L 762.58 166.91 L 763.59 300.24 L 764.61 232.97 L 765.62 126.07 L 766.64 206.55 L 767.65 273.81 L 768.66 180.12 L 769.68 99.64 L 770.69 193.33 L 771.71 287.03 L 772.72 153.69 L 773.73 112.85 L 774.75 206.55 L 775.76 300.24 L 776.77 219.76 L 777.79 126.07 L 778.80 180.12 L 779.82 273.81 L 780.83 166.91 L 781.84 86.43 L 782.86 193.33 L 783.87 287.03 L 784.88 232.97 L 785.90 126.07 L 786.91 206.55 L 787.93 313.45 L 788.94 153.69 L 789.95 232.97 L 790.97 273.81 L 791.98 219.76 L 793.00 313.45 L 794.01 180.12 L 795.02 246.19 L 796.04 287.03 L 797.05 206.55 L 798.06 153.69 L 799.08 339.88 L 800.09 166.91 L 801.11 232.97 L 802.12 273.81 L 803.13 193.33 L 804.15 180.12 L 805.16 326.67 L 806.18 219.76 L 807.19 153.69 L 808.20 287.03 L 809.22 246.19 L 810.23 193.33 L 811.24 273.81 L 812.26 180.12 L 813.27 219.76 L 814.29 313.45 L 815.30 206.55 L 816.31 166.91 L 817.33 300.24 L 818.34 232.97 L 819.35 153.69 L 820.37 326.67 L 821.38 193.33 L 822.40 246.19 L 823.41 273.81 L 824.42 166.91 L 825.44 219.76 L 826.45 300.24 L 827.47 206.55 L 828.48 153.69 L 829.49 339.88 L 830.51 180.12 L 831.52 232.97 L 832.53 287.03 L 833.55 193.33 L 834.56 206.55 L 835.58 273.81 L 836.59 219.76 L 837.60 180.12 L 838.62 313.45 L 839.63 246.19 L 840.65 166.91 L 841.66 300.24 L 842.67 153.69 L 843.69 232.97 L 844.70 326.67 L 845.71 193.33 L 846.73 219.76 L 847.74 287.03 L 848.76 206.55 L 849.77 180.12 L 850.78 273.81 L 851.80 246.19 L 852.81 193.33 L 853.82 339.88 L 854.84 166.91 L 855.85 206.55 L 856.87 313.45 L 857.88 180.12 L 858.89 232.97 L 859.91 273.81 L 860.92 219.76 L 861.94 153.69 L 862.95 300.24 L 863.96 206.55 L 864.98 193.33 L 865.99 287.03 L 867.00 246.19 L 868.02 180.12 L 869.03 273.81 L 870.05 219.76 L 871.06 206.55 L 872.07 313.45 L 873.09 232.97 L 874.10 153.69 L 875.12 300.24 L 876.13 166.91 L 877.14 193.33 L 878.16 273.81 L 879.17 206.55 L 880.18 219.76 L 881.20 287.03 L 882.21 180.12 L 883.23 246.19 L 884.24 326.67 L 885.25 153.69 L 886.27 193.33 L 887.28 300.24 L 888.29 219.76 L 889.31 166.91 L 890.32 273.81 L 891.34 206.55 L 892.35 180.12 L 893.36 287.03 L 894.38 232.97 L 895.39 193.33 L 896.41 273.81 L 897.42 219.76 L 898.43 206.55 L 899.45 313.45 L 900.46 180.12 L 901.47 153.69 L 902.49 339.88 L 903.50 246.19 L 904.52 166.91 L 905.53 300.24 L 906.54 206.55 L 907.56 193.33 L 908.57 273.81 L 909.59 232.97 L 910.60 219.76 L 911.61 126.07 L 912.63 153.69 L 913.64 99.64 L 914.65 180.12 L 915.67 112.85 L 916.68 206.55 L 917.70 73.21 L 918.71 166.91 L 919.72 126.07 L 920.74 219.76 L 921.75 86.43 L 922.76 153.69 L 923.78 60.00 L 924.79 193.33 L 925.81 112.85 L 926.82 166.91 L 927.83 99.64 L 928.85 180.12 L 929.86 86.43 L 930.88 153.69 L 931.89 126.07 L 932.90 193.33 L 933.92 99.64 L 934.93 206.55 L 935.94 112.85 L 936.96 166.91 L 937.97 73.21 L 938.99 153.69 L 940.00 86.43" fill="none" stroke="#60a5fa" stroke-width="2" />
<circle cx="62.03" cy="393.93" r="5" fill="#f87171" /><circle cx="67.10" cy="446.79" r="5" fill="#f87171" /><circle cx="79.26" cy="420.36" r="5" fill="#f87171" /><circle cx="82.30" cy="460.00" r="5" fill="#f87171" /><circle cx="90.41" cy="433.57" r="5" fill="#f87171" /><circle cx="102.58" cy="446.79" r="5" fill="#f87171" /><circle cx="118.80" cy="446.79" r="5" fill="#f87171" /><circle cx="122.86" cy="420.36" r="5" fill="#f87171" /><circle cx="171.52" cy="446.79" r="5" fill="#f87171" /><circle cx="199.91" cy="446.79" r="5" fill="#f87171" /><circle cx="252.63" cy="446.79" r="5" fill="#f87171" /><circle cx="301.29" cy="446.79" r="5" fill="#f87171" /><circle cx="315.48" cy="112.85" r="5" fill="#f87171" /><circle cx="319.54" cy="86.43" r="5" fill="#f87171" /><circle cx="323.59" cy="73.21" r="5" fill="#f87171" /><circle cx="337.79" cy="326.67" r="5" fill="#f87171" /><circle cx="368.20" cy="99.64" r="5" fill="#f87171" /><circle cx="380.37" cy="86.43" r="5" fill="#f87171" /><circle cx="396.59" cy="112.85" r="5" fill="#f87171" /><circle cx="400.65" cy="99.64" r="5" fill="#f87171" /><circle cx="427.00" cy="326.67" r="5" fill="#f87171" /><circle cx="429.03" cy="99.64" r="5" fill="#f87171" /><circle cx="433.09" cy="112.85" r="5" fill="#f87171" /><circle cx="455.39" cy="339.88" r="5" fill="#f87171" /><circle cx="477.70" cy="60.00" r="5" fill="#f87171" /><circle cx="489.86" cy="99.64" r="5" fill="#f87171" /><circle cx="500.00" cy="326.67" r="5" fill="#f87171" /><circle cx="526.36" cy="73.21" r="5" fill="#f87171" /><circle cx="550.69" cy="99.64" r="5" fill="#f87171" /><circle cx="575.02" cy="73.21" r="5" fill="#f87171" /><circle cx="605.44" cy="339.88" r="5" fill="#f87171" /><circle cx="672.35" cy="73.21" r="5" fill="#f87171" /><circle cx="698.71" cy="326.67" r="5" fill="#f87171" /><circle cx="789.95" cy="232.97" r="5" fill="#f87171" /><circle cx="791.98" cy="219.76" r="5" fill="#f87171" /><circle cx="793.00" cy="313.45" r="5" fill="#f87171" /><circle cx="794.01" cy="180.12" r="5" fill="#f87171" /><circle cx="795.02" cy="246.19" r="5" fill="#f87171" /><circle cx="796.04" cy="287.03" r="5" fill="#f87171" /><circle cx="797.05" cy="206.55" r="5" fill="#f87171" /><circle cx="798.06" cy="153.69" r="5" fill="#f87171" /><circle cx="799.08" cy="339.88" r="5" fill="#f87171" /><circle cx="800.09" cy="166.91" r="5" fill="#f87171" /><circle cx="801.11" cy="232.97" r="5" fill="#f87171" /><circle cx="803.13" cy="193.33" r="5" fill="#f87171" /><circle cx="804.15" cy="180.12" r="5" fill="#f87171" /><circle cx="805.16" cy="326.67" r="5" fill="#f87171" /><circle cx="806.18" cy="219.76" r="5" fill="#f87171" /><circle cx="807.19" cy="153.69" r="5" fill="#f87171" /><circle cx="808.20" cy="287.03" r="5" fill="#f87171" /><circle cx="809.22" cy="246.19" r="5" fill="#f87171" /><circle cx="810.23" cy="193.33" r="5" fill="#f87171" /><circle cx="812.26" cy="180.12" r="5" fill="#f87171" /><circle cx="813.27" cy="219.76" r="5" fill="#f87171" /><circle cx="814.29" cy="313.45" r="5" fill="#f87171" /><circle cx="815.30" cy="206.55" r="5" fill="#f87171" /><circle cx="816.31" cy="166.91" r="5" fill="#f87171" /><circle cx="817.33" cy="300.24" r="5" fill="#f87171" /><circle cx="818.34" cy="232.97" r="5" fill="#f87171" /><circle cx="819.35" cy="153.69" r="5" fill="#f87171" /><circle cx="820.37" cy="326.67" r="5" fill="#f87171" /><circle cx="821.38" cy="193.33" r="5" fill="#f87171" /><circle cx="822.40" cy="246.19" r="5" fill="#f87171" /><circle cx="824.42" cy="166.91" r="5" fill="#f87171" /><circle cx="825.44" cy="219.76" r="5" fill="#f87171" /><circle cx="826.45" cy="300.24" r="5" fill="#f87171" /><circle cx="827.47" cy="206.55" r="5" fill="#f87171" /><circle cx="828.48" cy="153.69" r="5" fill="#f87171" /><circle cx="829.49" cy="339.88" r="5" fill="#f87171" /><circle cx="830.51" cy="180.12" r="5" fill="#f87171" /><circle cx="831.52" cy="232.97" r="5" fill="#f87171" /><circle cx="832.53" cy="287.03" r="5" fill="#f87171" /><circle cx="833.55" cy="193.33" r="5" fill="#f87171" /><circle cx="834.56" cy="206.55" r="5" fill="#f87171" /><circle cx="835.58" cy="273.81" r="5" fill="#f87171" /><circle cx="836.59" cy="219.76" r="5" fill="#f87171" /><circle cx="837.60" cy="180.12" r="5" fill="#f87171" /><circle cx="838.62" cy="313.45" r="5" fill="#f87171" /><circle cx="839.63" cy="246.19" r="5" fill="#f87171" /><circle cx="840.65" cy="166.91" r="5" fill="#f87171" /><circle cx="841.66" cy="300.24" r="5" fill="#f87171" /><circle cx="842.67" cy="153.69" r="5" fill="#f87171" /><circle cx="843.69" cy="232.97" r="5" fill="#f87171" /><circle cx="844.70" cy="326.67" r="5" fill="#f87171" /><circle cx="845.71" cy="193.33" r="5" fill="#f87171" /><circle cx="846.73" cy="219.76" r="5" fill="#f87171" /><circle cx="847.74" cy="287.03" r="5" fill="#f87171" /><circle cx="848.76" cy="206.55" r="5" fill="#f87171" /><circle cx="849.77" cy="180.12" r="5" fill="#f87171" /><circle cx="851.80" cy="246.19" r="5" fill="#f87171" /><circle cx="852.81" cy="193.33" r="5" fill="#f87171" /><circle cx="853.82" cy="339.88" r="5" fill="#f87171" /><circle cx="854.84" cy="166.91" r="5" fill="#f87171" /><circle cx="855.85" cy="206.55" r="5" fill="#f87171" /><circle cx="856.87" cy="313.45" r="5" fill="#f87171" /><circle cx="857.88" cy="180.12" r="5" fill="#f87171" /><circle cx="859.91" cy="273.81" r="5" fill="#f87171" /><circle cx="860.92" cy="219.76" r="5" fill="#f87171" /><circle cx="861.94" cy="153.69" r="5" fill="#f87171" /><circle cx="862.95" cy="300.24" r="5" fill="#f87171" /><circle cx="863.96" cy="206.55" r="5" fill="#f87171" /><circle cx="864.98" cy="193.33" r="5" fill="#f87171" /><circle cx="865.99" cy="287.03" r="5" fill="#f87171" /><circle cx="867.00" cy="246.19" r="5" fill="#f87171" /><circle cx="868.02" cy="180.12" r="5" fill="#f87171" /><circle cx="869.03" cy="273.81" r="5" fill="#f87171" /><circle cx="870.05" cy="219.76" r="5" fill="#f87171" /><circle cx="871.06" cy="206.55" r="5" fill="#f87171" /><circle cx="872.07" cy="313.45" r="5" fill="#f87171" /><circle cx="873.09" cy="232.97" r="5" fill="#f87171" /><circle cx="874.10" cy="153.69" r="5" fill="#f87171" /><circle cx="875.12" cy="300.24" r="5" fill="#f87171" /><circle cx="876.13" cy="166.91" r="5" fill="#f87171" /><circle cx="877.14" cy="193.33" r="5" fill="#f87171" /><circle cx="878.16" cy="273.81" r="5" fill="#f87171" /><circle cx="879.17" cy="206.55" r="5" fill="#f87171" /><circle cx="880.18" cy="219.76" r="5" fill="#f87171" /><circle cx="881.20" cy="287.03" r="5" fill="#f87171" /><circle cx="882.21" cy="180.12" r="5" fill="#f87171" /><circle cx="884.24" cy="326.67" r="5" fill="#f87171" /><circle cx="885.25" cy="153.69" r="5" fill="#f87171" /><circle cx="886.27" cy="193.33" r="5" fill="#f87171" /><circle cx="887.28" cy="300.24" r="5" fill="#f87171" /><circle cx="888.29" cy="219.76" r="5" fill="#f87171" /><circle cx="889.31" cy="166.91" r="5" fill="#f87171" /><circle cx="891.34" cy="206.55" r="5" fill="#f87171" /><circle cx="892.35" cy="180.12" r="5" fill="#f87171" /><circle cx="893.36" cy="287.03" r="5" fill="#f87171" /><circle cx="894.38" cy="232.97" r="5" fill="#f87171" /><circle cx="895.39" cy="193.33" r="5" fill="#f87171" /><circle cx="896.41" cy="273.81" r="5" fill="#f87171" /><circle cx="897.42" cy="219.76" r="5" fill="#f87171" /><circle cx="898.43" cy="206.55" r="5" fill="#f87171" /><circle cx="899.45" cy="313.45" r="5" fill="#f87171" /><circle cx="900.46" cy="180.12" r="5" fill="#f87171" /><circle cx="901.47" cy="153.69" r="5" fill="#f87171" /><circle cx="902.49" cy="339.88" r="5" fill="#f87171" /><circle cx="903.50" cy="246.19" r="5" fill="#f87171" /><circle cx="904.52" cy="166.91" r="5" fill="#f87171" /><circle cx="905.53" cy="300.24" r="5" fill="#f87171" /><circle cx="906.54" cy="206.55" r="5" fill="#f87171" /><circle cx="907.56" cy="193.33" r="5" fill="#f87171" /><circle cx="908.57" cy="273.81" r="5" fill="#f87171" /><circle cx="909.59" cy="232.97" r="5" fill="#f87171" /><circle cx="910.60" cy="219.76" r="5" fill="#f87171" /><circle cx="911.61" cy="126.07" r="5" fill="#f87171" /><circle cx="913.64" cy="99.64" r="5" fill="#f87171" /><circle cx="916.68" cy="206.55" r="5" fill="#f87171" /><circle cx="917.70" cy="73.21" r="5" fill="#f87171" /><circle cx="923.78" cy="60.00" r="5" fill="#f87171" /><circle cx="925.81" cy="112.85" r="5" fill="#f87171" /><circle cx="927.83" cy="99.64" r="5" fill="#f87171" /><circle cx="929.86" cy="86.43" r="5" fill="#f87171" /><circle cx="931.89" cy="126.07" r="5" fill="#f87171" /><circle cx="933.92" cy="99.64" r="5" fill="#f87171" /><circle cx="935.94" cy="112.85" r="5" fill="#f87171" /><circle cx="937.97" cy="73.21" r="5" fill="#f87171" /><circle cx="940.00" cy="86.43" r="5" fill="#f87171" />
<text x="60" y="500" fill="#94a3b8" font-size="12" font-family="Arial">Time Index</text>
<text x="20" y="50" fill="#94a3b8" font-size="12" font-family="Arial">Temp</text>
</svg>