<?xml version="1.0" encoding="UTF-8"?>
<svg xmlns="http://www.w3.org/2000/svg" width="1200" height="900" viewBox="0 0 1200 900">
<rect width="1200" height="900" fill="#0b1120" />
<text x="40" y="50" fill="#f8fafc" font-size="22" font-family="Arial">Temporal Trend Analysis (Linear Regression)</text>

    <rect x="40" y="80" width="1120" height="250" fill="#0f172a" rx="16" />
    <text x="64" y="112" fill="#e2e8f0" font-size="16" font-family="Arial">Temperature (C) (Actual)</text>
    <path d="M 80.00 225.06 L 86.01 160.13 L 92.02 209.01 L 98.03 249.87 L 104.05 192.96 L 110.06 144.08 L 116.07 200.99 L 122.08 257.90 L 128.09 176.91 L 134.10 152.10 L 140.12 209.01 L 146.13 265.92 L 152.14 217.04 L 158.15 160.13 L 164.16 192.96 L 170.17 249.87 L 176.18 184.94 L 182.20 136.05 L 188.21 200.99 L 194.22 257.90 L 200.23 225.06 L 206.24 160.13 L 212.25 209.01 L 218.27 273.95 L 224.28 176.91 L 230.29 225.06 L 236.30 249.87 L 242.31 217.04 L 248.32 273.95 L 254.34 192.96 L 260.35 233.09 L 266.36 257.90 L 272.37 209.01 L 278.38 176.91 L 284.39 290.00 L 290.40 184.94 L 296.42 225.06 L 302.43 249.87 L 308.44 200.99 L 314.45 192.96 L 320.46 281.97 L 326.47 217.04 L 332.49 176.91 L 338.50 257.90 L 344.51 233.09 L 350.52 200.99 L 356.53 249.87 L 362.54 192.96 L 368.55 217.04 L 374.57 273.95 L 380.58 209.01 L 386.59 184.94 L 392.60 265.92 L 398.61 225.06 L 404.62 176.91 L 410.64 281.97 L 416.65 200.99 L 422.66 233.09 L 428.67 249.87 L 434.68 184.94 L 440.69 217.04 L 446.71 265.92 L 452.72 209.01 L 458.73 176.91 L 464.74 290.00 L 470.75 192.96 L 476.76 225.06 L 482.77 257.90 L 488.79 200.99 L 494.80 209.01 L 500.81 249.87 L 506.82 217.04 L 512.83 192.96 L 518.84 273.95 L 524.86 233.09 L 530.87 184.94 L 536.88 265.92 L 542.89 176.91 L 548.90 225.06 L 554.91 281.97 L 560.92 200.99 L 566.94 217.04 L 572.95 257.90 L 578.96 209.01 L 584.97 192.96 L 590.98 249.87 L 596.99 233.09 L 603.01 200.99 L 609.02 290.00 L 615.03 184.94 L 621.04 209.01 L 627.05 273.95 L 633.06 192.96 L 639.08 225.06 L 645.09 249.87 L 651.10 217.04 L 657.11 176.91 L 663.12 265.92 L 669.13 209.01 L 675.14 200.99 L 681.16 257.90 L 687.17 233.09 L 693.18 192.96 L 699.19 249.87 L 705.20 217.04 L 711.21 209.01 L 717.23 273.95 L 723.24 225.06 L 729.25 176.91 L 735.26 265.92 L 741.27 184.94 L 747.28 200.99 L 753.29 249.87 L 759.31 209.01 L 765.32 217.04 L 771.33 257.90 L 777.34 192.96 L 783.35 233.09 L 789.36 281.97 L 795.38 176.91 L 801.39 200.99 L 807.40 265.92 L 813.41 217.04 L 819.42 184.94 L 825.43 249.87 L 831.45 209.01 L 837.46 192.96 L 843.47 257.90 L 849.48 225.06 L 855.49 200.99 L 861.50 249.87 L 867.51 217.04 L 873.53 209.01 L 879.54 273.95 L 885.55 192.96 L 891.56 176.91 L 897.57 290.00 L 903.58 233.09 L 909.60 184.94 L 915.61 265.92 L 921.62 209.01 L 927.63 200.99 L 933.64 249.87 L 939.65 225.06 L 945.66 217.04 L 951.68 160.13 L 957.69 176.91 L 963.70 144.08 L 969.71 192.96 L 975.72 152.10 L 981.73 209.01 L 987.75 128.03 L 993.76 184.94 L 999.77 160.13 L 1005.78 217.04 L 1011.79 136.05 L 1017.80 176.91 L 1023.82 120.00 L 1029.83 200.99 L 1035.84 152.10 L 1041.85 184.94 L 1047.86 144.08 L 1053.87 192.96 L 1059.88 136.05 L 1065.90 176.91 L 1071.91 160.13 L 1077.92 200.99 L 1083.93 144.08 L 1089.94 209.01 L 1095.95 152.10 L 1101.97 184.94 L 1107.98 128.03 L 1113.99 176.91 L 1120.00 136.05" fill="none" stroke="#38bdf8" stroke-width="2" />
    <text x="80" y="320" fill="#94a3b8" font-size="12" font-family="Arial">695</text>
    <text x="1080" y="320" fill="#94a3b8" font-size="12" font-family="Arial">868</text>
  
    <rect x="40" y="80" width="1120" height="250" fill="#0f172a" rx="16" />
    <text x="64" y="112" fill="#e2e8f0" font-size="16" font-family="Arial">Temperature (C) (Predicted)</text>
    <path d="M 80.00 178.19 L 86.01 178.04 L 92.02 177.90 L 98.03 177.75 L 104.05 177.60 L 110.06 177.46 L 116.07 177.31 L 122.08 177.17 L 128.09 177.02 L 134.10 176.88 L 140.12 176.73 L 146.13 176.59 L 152.14 176.44 L 158.15 176.29 L 164.16 176.15 L 170.17 176.00 L 176.18 175.86 L 182.20 175.71 L 188.21 175.57 L 194.22 175.42 L 200.23 175.28 L 206.24 175.13 L 212.25 174.99 L 218.27 174.84 L 224.28 174.69 L 230.29 174.55 L 236.30 174.40 L 242.31 174.26 L 248.32 174.11 L 254.34 173.97 L 260.35 173.82 L 266.36 173.68 L 272.37 173.53 L 278.38 173.39 L 284.39 173.24 L 290.40 173.09 L 296.42 172.95 L 302.43 172.80 L 308.44 172.66 L 314.45 172.51 L 320.46 172.37 L 326.47 172.22 L 332.49 172.08 L 338.50 171.93 L 344.51 171.78 L 350.52 171.64 L 356.53 171.49 L 362.54 171.35 L 368.55 171.20 L 374.57 171.06 L 380.58 170.91 L 386.59 170.77 L 392.60 170.62 L 398.61 170.48 L 404.62 170.33 L 410.64 170.18 L 416.65 170.04 L 422.66 169.89 L 428.67 169.75 L 434.68 169.60 L 440.69 169.46 L 446.71 169.31 L 452.72 169.17 L 458.73 169.02 L 464.74 168.88 L 470.75 168.73 L 476.76 168.58 L 482.77 168.44 L 488.79 168.29 L 494.80 168.15 L 500.81 168.00 L 506.82 167.86 L 512.83 167.71 L 518.84 167.57 L 524.86 167.42 L 530.87 167.27 L 536.88 167.13 L 542.89 166.98 L 548.90 166.84 L 554.91 166.69 L 560.92 166.55 L 566.94 166.40 L 572.95 166.26 L 578.96 166.11 L 584.97 165.97 L 590.98 165.82 L 596.99 165.67 L 603.01 165.53 L 609.02 165.38 L 615.03 165.24 L 621.04 165.09 L 627.05 164.95 L 633.06 164.80 L 639.08 164.66 L 645.09 164.51 L 651.10 164.37 L 657.11 164.22 L 663.12 164.07 L 669.13 163.93 L 675.14 163.78 L 681.16 163.64 L 687.17 163.49 L 693.18 163.35 L 699.19 163.20 L 705.20 163.06 L 711.21 162.91 L 717.23 162.76 L 723.24 162.62 L 729.25 162.47 L 735.26 162.33 L 741.27 162.18 L 747.28 162.04 L 753.29 161.89 L 759.31 161.75 L 765.32 161.60 L 771.33 161.46 L 777.34 161.31 L 783.35 161.16 L 789.36 161.02 L 795.38 160.87 L 801.39 160.73 L 807.40 160.58 L 813.41 160.44 L 819.42 160.29 L 825.43 160.15 L 831.45 160.00 L 837.46 159.86 L 843.47 159.71 L 849.48 159.56 L 855.49 159.42 L 861.50 159.27 L 867.51 159.13 L 873.53 158.98 L 879.54 158.84 L 885.55 158.69 L 891.56 158.55 L 897.57 158.40 L 903.58 158.25 L 909.60 158.11 L 915.61 157.96 L 921.62 157.82 L 927.63 157.67 L 933.64 157.53 L 939.65 157.38 L 945.66 157.24 L 951.68 157.09 L 957.69 156.95 L 963.70 156.80 L 969.71 156.65 L 975.72 156.51 L 981.73 156.36 L 987.75 156.22 L 993.76 156.07 L 999.77 155.93 L 1005.78 155.78 L 1011.79 155.64 L 1017.80 155.49 L 1023.82 155.35 L 1029.83 155.20 L 1035.84 155.05 L 1041.85 154.91 L 1047.86 154.76 L 1053.87 154.62 L 1059.88 154.47 L 1065.90 154.33 L 1071.91 154.18 L 1077.92 154.04 L 1083.93 153.89 L 1089.94 153.74 L 1095.95 153.60 L 1101.97 153.45 L 1107.98 153.31 L 1113.99 153.16 L 1120.00 153.02" fill="none" stroke="#facc15" stroke-width="2" />
    <text x="80" y="320" fill="#94a3b8" font-size="12" font-family="Arial">695</text>
    <text x="1080" y="320" fill="#94a3b8" font-size="12" font-family="Arial">868</text>
  

    <rect x="40" y="350" width="1120" height="250" fill="#0f172a" rx="16" />
    <text x="64" y="382" fill="#e2e8f0" font-size="16" font-family="Arial">Heart Rate (BPM) (Actual)</text>
    <path d="M 80.00 472.22 L 86.01 438.67 L 92.02 457.77 L 98.03 468.09 L 104.05 433.00 L 110.06 474.87 L 116.07 442.81 L 122.08 462.93 L 128.09 453.12 L 134.10 471.20 L 140.12 440.21 L 146.13 465.53 L 152.14 434.54 L 158.15 456.75 L 164.16 474.31 L 170.17 448.99 L 176.18 461.91 L 182.20 442.30 L 188.21 472.73 L 194.22 437.65 L 200.23 457.77 L 206.24 467.57 L 212.25 434.02 L 218.27 454.66 L 224.28 470.18 L 230.29 533.14 L 236.30 522.83 L 242.31 545.55 L 248.32 535.23 L 254.34 529.01 L 260.35 553.31 L 266.36 540.39 L 272.37 518.69 L 278.38 550.71 L 284.39 530.07 L 290.40 537.79 L 296.42 545.04 L 302.43 515.07 L 308.44 541.41 L 314.45 555.86 L 320.46 526.96 L 326.47 534.72 L 332.49 549.17 L 338.50 523.34 L 344.51 542.95 L 350.52 558.98 L 356.53 525.43 L 362.54 536.77 L 368.55 547.08 L 374.57 517.67 L 380.58 553.31 L 386.59 532.63 L 392.60 539.88 L 398.61 521.80 L 404.62 550.20 L 410.64 538.30 L 416.65 525.43 L 422.66 560.00 L 428.67 519.20 L 434.68 544.53 L 440.69 531.61 L 446.71 541.92 L 452.72 524.36 L 458.73 554.33 L 464.74 534.72 L 470.75 527.47 L 476.76 546.57 L 482.77 515.07 L 488.79 540.39 L 494.80 549.17 L 500.81 532.12 L 506.82 520.78 L 512.83 556.38 L 518.84 536.25 L 524.86 527.98 L 530.87 544.01 L 536.88 518.18 L 542.89 540.90 L 548.90 551.22 L 554.91 530.59 L 560.92 523.85 L 566.94 554.84 L 572.95 536.77 L 578.96 529.01 L 584.97 545.04 L 590.98 517.67 L 596.99 539.37 L 603.01 532.63 L 609.02 549.17 L 615.03 521.80 L 621.04 538.30 L 627.05 525.43 L 633.06 546.06 L 639.08 553.82 L 645.09 531.61 L 651.10 519.20 L 657.11 541.92 L 663.12 535.74 L 669.13 525.94 L 675.14 550.20 L 681.16 522.83 L 687.17 542.95 L 693.18 530.07 L 699.19 545.04 L 705.20 518.69 L 711.21 555.35 L 717.23 535.23 L 723.24 526.96 L 729.25 546.57 L 735.26 520.78 L 741.27 540.39 L 747.28 533.14 L 753.29 548.66 L 759.31 519.71 L 765.32 536.77 L 771.33 527.98 L 777.34 544.53 L 783.35 522.31 L 789.36 553.31 L 795.38 531.10 L 801.39 541.92 L 807.40 515.07 L 813.41 534.72 L 819.42 550.71 L 825.43 526.45 L 831.45 545.55 L 837.46 518.18 L 843.47 539.88 L 849.48 532.63 L 855.49 524.36 L 861.50 551.73 L 867.51 536.25 L 873.53 525.43 L 879.54 546.57 L 885.55 516.65 L 891.56 554.33 L 897.57 530.07 L 903.58 541.41 L 909.60 523.34 L 915.61 549.17 L 921.62 537.79 L 927.63 526.45 L 933.64 544.01 L 939.65 518.69 L 945.66 531.61 L 951.68 448.99 L 957.69 438.67 L 963.70 428.36 L 969.71 458.79 L 975.72 443.83 L 981.73 426.78 L 987.75 452.10 L 993.76 435.05 L 999.77 461.91 L 1005.78 421.62 L 1011.79 446.94 L 1017.80 439.18 L 1023.82 431.42 L 1029.83 455.73 L 1035.84 416.46 L 1041.85 443.32 L 1047.86 433.00 L 1053.87 454.15 L 1059.88 425.24 L 1065.90 466.04 L 1071.91 437.14 L 1077.92 448.99 L 1083.93 429.38 L 1089.94 456.24 L 1095.95 417.48 L 1101.97 443.83 L 1107.98 433.51 L 1113.99 451.08 L 1120.00 423.71" fill="none" stroke="#f97316" stroke-width="2" />
    <text x="80" y="590" fill="#94a3b8" font-size="12" font-family="Arial">695</text>
    <text x="1080" y="590" fill="#94a3b8" font-size="12" font-family="Arial">868</text>
  
    <rect x="40" y="350" width="1120" height="250" fill="#0f172a" rx="16" />
    <text x="64" y="382" fill="#e2e8f0" font-size="16" font-family="Arial">Heart Rate (BPM) (Predicted)</text>
    <path d="M 80.00 422.81 L 86.01 422.62 L 92.02 422.43 L 98.03 422.24 L 104.05 422.05 L 110.06 421.86 L 116.07 421.67 L 122.08 421.48 L 128.09 421.29 L 134.10 421.10 L 140.12 420.91 L 146.13 420.72 L 152.14 420.53 L 158.15 420.34 L 164.16 420.15 L 170.17 419.97 L 176.18 419.78 L 182.20 419.59 L 188.21 419.40 L 194.22 419.21 L 200.23 419.02 L 206.24 418.83 L 212.25 418.64 L 218.27 418.45 L 224.28 418.26 L 230.29 418.07 L 236.30 417.88 L 242.31 417.69 L 248.32 417.50 L 254.34 417.31 L 260.35 417.12 L 266.36 416.93 L 272.37 416.74 L 278.38 416.55 L 284.39 416.36 L 290.40 416.17 L 296.42 415.98 L 302.43 415.79 L 308.44 415.60 L 314.45 415.41 L 320.46 415.22 L 326.47 415.03 L 332.49 414.84 L 338.50 414.65 L 344.51 414.47 L 350.52 414.28 L 356.53 414.09 L 362.54 413.90 L 368.55 413.71 L 374.57 413.52 L 380.58 413.33 L 386.59 413.14 L 392.60 412.95 L 398.61 412.76 L 404.62 412.57 L 410.64 412.38 L 416.65 412.19 L 422.66 412.00 L 428.67 411.81 L 434.68 411.62 L 440.69 411.43 L 446.71 411.24 L 452.72 411.05 L 458.73 410.86 L 464.74 410.67 L 470.75 410.48 L 476.76 410.29 L 482.77 410.10 L 488.79 409.91 L 494.80 409.72 L 500.81 409.53 L 506.82 409.34 L 512.83 409.15 L 518.84 408.97 L 524.86 408.78 L 530.87 408.59 L 536.88 408.40 L 542.89 408.21 L 548.90 408.02 L 554.91 407.83 L 560.92 407.64 L 566.94 407.45 L 572.95 407.26 L 578.96 407.07 L 584.97 406.88 L 590.98 406.69 L 596.99 406.50 L 603.01 406.31 L 609.02 406.12 L 615.03 405.93 L 621.04 405.74 L 627.05 405.55 L 633.06 405.36 L 639.08 405.17 L 645.09 404.98 L 651.10 404.79 L 657.11 404.60 L 663.12 404.41 L 669.13 404.22 L 675.14 404.03 L 681.16 403.84 L 687.17 403.65 L 693.18 403.47 L 699.19 403.28 L 705.20 403.09 L 711.21 402.90 L 717.23 402.71 L 723.24 402.52 L 729.25 402.33 L 735.26 402.14 L 741.27 401.95 L 747.28 401.76 L 753.29 401.57 L 759.31 401.38 L 765.32 401.19 L 771.33 401.00 L 777.34 400.81 L 783.35 400.62 L 789.36 400.43 L 795.38 400.24 L 801.39 400.05 L 807.40 399.86 L 813.41 399.67 L 819.42 399.48 L 825.43 399.29 L 831.45 399.10 L 837.46 398.91 L 843.47 398.72 L 849.48 398.53 L 855.49 398.34 L 861.50 398.16 L 867.51 397.97 L 873.53 397.78 L 879.54 397.59 L 885.55 397.40 L 891.56 397.21 L 897.57 397.02 L 903.58 396.83 L 909.60 396.64 L 915.61 396.45 L 921.62 396.26 L 927.63 396.07 L 933.64 395.88 L 939.65 395.69 L 945.66 395.50 L 951.68 395.31 L 957.69 395.12 L 963.70 394.93 L 969.71 394.74 L 975.72 394.55 L 981.73 394.36 L 987.75 394.17 L 993.76 393.98 L 999.77 393.79 L 1005.78 393.60 L 1011.79 393.41 L 1017.80 393.22 L 1023.82 393.03 L 1029.83 392.84 L 1035.84 392.66 L 1041.85 392.47 L 1047.86 392.28 L 1053.87 392.09 L 1059.88 391.90 L 1065.90 391.71 L 1071.91 391.52 L 1077.92 391.33 L 1083.93 391.14 L 1089.94 390.95 L 1095.95 390.76 L 1101.97 390.57 L 1107.98 390.38 L 1113.99 390.19 L 1120.00 390.00" fill="none" stroke="#facc15" stroke-width="2" />
    <text x="80" y="590" fill="#94a3b8" font-size="12" font-family="Arial">695</text>
    <text x="1080" y="590" fill="#94a3b8" font-size="12" font-family="Arial">868</text>
  

    <rect x="40" y="620" width="1120" height="250" fill="#0f172a" rx="16" />
    <text x="64" y="652" fill="#e2e8f0" font-size="16" font-family="Arial">Air Quality (Actual)</text>
    <path d="M 80.00 737.28 L 86.01 738.60 L 92.02 742.70 L 98.03 739.91 L 104.05 736.29 L 110.06 738.76 L 116.07 741.55 L 122.08 737.61 L 128.09 743.35 L 134.10 738.44 L 140.12 735.32 L 146.13 740.07 L 152.14 734.33 L 158.15 736.96 L 164.16 742.04 L 170.17 738.60 L 176.18 742.70 L 182.20 735.97 L 188.21 739.91 L 194.22 737.12 L 200.23 741.23 L 206.24 738.76 L 212.25 735.48 L 218.27 740.40 L 224.28 743.03 L 230.29 827.37 L 236.30 821.79 L 242.31 830.00 L 248.32 823.93 L 254.34 826.06 L 260.35 817.52 L 266.36 828.69 L 272.37 822.45 L 278.38 824.74 L 284.39 818.51 L 290.40 827.05 L 296.42 820.15 L 302.43 825.73 L 308.44 820.98 L 314.45 815.88 L 320.46 822.94 L 326.47 829.01 L 332.49 824.09 L 338.50 819.00 L 344.51 825.41 L 350.52 821.63 L 356.53 816.87 L 362.54 827.70 L 368.55 822.94 L 374.57 819.66 L 380.58 815.72 L 386.59 825.73 L 392.60 820.98 L 398.61 818.84 L 404.62 828.52 L 410.64 823.10 L 416.65 816.55 L 422.66 825.89 L 428.67 820.47 L 434.68 815.39 L 440.69 824.58 L 446.71 821.14 L 452.72 818.51 L 458.73 827.70 L 464.74 822.45 L 470.75 817.20 L 476.76 819.82 L 482.77 825.57 L 488.79 815.88 L 494.80 818.02 L 500.81 822.94 L 506.82 820.15 L 512.83 827.05 L 518.84 816.87 L 524.86 823.93 L 530.87 821.79 L 536.88 814.24 L 542.89 825.89 L 548.90 818.19 L 554.91 820.31 L 560.92 815.07 L 566.94 822.78 L 572.95 827.53 L 578.96 819.50 L 584.97 817.52 L 590.98 824.09 L 596.99 818.67 L 603.01 821.30 L 609.02 825.41 L 615.03 815.56 L 621.04 819.00 L 627.05 823.27 L 633.06 819.66 L 639.08 816.55 L 645.09 825.73 L 651.10 821.63 L 657.11 815.23 L 663.12 824.74 L 669.13 818.35 L 675.14 820.15 L 681.16 826.88 L 687.17 817.03 L 693.18 821.79 L 699.19 822.78 L 705.20 819.50 L 711.21 815.72 L 717.23 825.57 L 723.24 819.16 L 729.25 823.93 L 735.26 821.46 L 741.27 816.71 L 747.28 827.21 L 753.29 818.67 L 759.31 820.31 L 765.32 822.45 L 771.33 817.52 L 777.34 825.89 L 783.35 815.39 L 789.36 821.14 L 795.38 818.02 L 801.39 824.74 L 807.40 819.82 L 813.41 817.20 L 819.42 826.88 L 825.43 822.94 L 831.45 818.19 L 837.46 815.88 L 843.47 825.73 L 849.48 820.15 L 855.49 820.98 L 861.50 816.87 L 867.51 824.09 L 873.53 819.00 L 879.54 819.99 L 885.55 822.45 L 891.56 815.56 L 897.57 827.21 L 903.58 818.67 L 909.60 821.79 L 915.61 816.55 L 921.62 825.57 L 927.63 823.10 L 933.64 814.08 L 939.65 819.66 L 945.66 824.26 L 951.68 663.28 L 957.69 673.94 L 963.70 667.55 L 969.71 664.92 L 975.72 676.25 L 981.73 671.15 L 987.75 666.23 L 993.76 672.46 L 999.77 660.00 L 1005.78 669.35 L 1011.79 674.93 L 1017.80 663.77 L 1023.82 672.14 L 1029.83 666.56 L 1035.84 661.64 L 1041.85 670.34 L 1047.86 674.10 L 1053.87 664.76 L 1059.88 667.87 L 1065.90 677.72 L 1071.91 670.99 L 1077.92 662.29 L 1083.93 675.09 L 1089.94 665.91 L 1095.95 669.51 L 1101.97 663.12 L 1107.98 673.78 L 1113.99 667.71 L 1120.00 661.48" fill="none" stroke="#34d399" stroke-width="2" />
    <text x="80" y="860" fill="#94a3b8" font-size="12" font-family="Arial">695</text>
    <text x="1080" y="860" fill="#94a3b8" font-size="12" font-family="Arial">868</text>
  
    <rect x="40" y="620" width="1120" height="250" fill="#0f172a" rx="16" />
    <text x="64" y="652" fill="#e2e8f0" font-size="16" font-family="Arial">Air Quality (Predicted)</text>
    <path d="M 80.00 728.28 L 86.01 728.21 L 92.02 728.14 L 98.03 728.07 L 104.05 728.00 L 110.06 727.93 L 116.07 727.86 L 122.08 727.79 L 128.09 727.72 L 134.10 727.65 L 140.12 727.57 L 146.13 727.50 L 152.14 727.43 L 158.15 727.36 L 164.16 727.29 L 170.17 727.22 L 176.18 727.15 L 182.20 727.08 L 188.21 727.01 L 194.22 726.94 L 200.23 726.86 L 206.24 726.79 L 212.25 726.72 L 218.27 726.65 L 224.28 726.58 L 230.29 726.51 L 236.30 726.44 L 242.31 726.37 L 248.32 726.30 L 254.34 726.23 L 260.35 726.16 L 266.36 726.08 L 272.37 726.01 L 278.38 725.94 L 284.39 725.87 L 290.40 725.80 L 296.42 725.73 L 302.43 725.66 L 308.44 725.59 L 314.45 725.52 L 320.46 725.45 L 326.47 725.38 L 332.49 725.30 L 338.50 725.23 L 344.51 725.16 L 350.52 725.09 L 356.53 725.02 L 362.54 724.95 L 368.55 724.88 L 374.57 724.81 L 380.58 724.74 L 386.59 724.67 L 392.60 724.59 L 398.61 724.52 L 404.62 724.45 L 410.64 724.38 L 416.65 724.31 L 422.66 724.24 L 428.67 724.17 L 434.68 724.10 L 440.69 724.03 L 446.71 723.96 L 452.72 723.89 L 458.73 723.81 L 464.74 723.74 L 470.75 723.67 L 476.76 723.60 L 482.77 723.53 L 488.79 723.46 L 494.80 723.39 L 500.81 723.32 L 506.82 723.25 L 512.83 723.18 L 518.84 723.10 L 524.86 723.03 L 530.87 722.96 L 536.88 722.89 L 542.89 722.82 L 548.90 722.75 L 554.91 722.68 L 560.92 722.61 L 566.94 722.54 L 572.95 722.47 L 578.96 722.40 L 584.97 722.32 L 590.98 722.25 L 596.99 722.18 L 603.01 722.11 L 609.02 722.04 L 615.03 721.97 L 621.04 721.90 L 627.05 721.83 L 633.06 721.76 L 639.08 721.69 L 645.09 721.61 L 651.10 721.54 L 657.11 721.47 L 663.12 721.40 L 669.13 721.33 L 675.14 721.26 L 681.16 721.19 L 687.17 721.12 L 693.18 721.05 L 699.19 720.98 L 705.20 720.91 L 711.21 720.83 L 717.23 720.76 L 723.24 720.69 L 729.25 720.62 L 735.26 720.55 L 741.27 720.48 L 747.28 720.41 L 753.29 720.34 L 759.31 720.27 L 765.32 720.20 L 771.33 720.13 L 777.34 720.05 L 783.35 719.98 L 789.36 719.91 L 795.38 719.84 L 801.39 719.77 L 807.40 719.70 L 813.41 719.63 L 819.42 719.56 L 825.43 719.49 L 831.45 719.42 L 837.46 719.34 L 843.47 719.27 L 849.48 719.20 L 855.49 719.13 L 861.50 719.06 L 867.51 718.99 L 873.53 718.92 L 879.54 718.85 L 885.55 718.78 L 891.56 718.71 L 897.57 718.64 L 903.58 718.56 L 909.60 718.49 L 915.61 718.42 L 921.62 718.35 L 927.63 718.28 L 933.64 718.21 L 939.65 718.14 L 945.66 718.07 L 951.68 718.00 L 957.69 717.93 L 963.70 717.85 L 969.71 717.78 L 975.72 717.71 L 981.73 717.64 L 987.75 717.57 L 993.76 717.50 L 999.77 717.43 L 1005.78 717.36 L 1011.79 717.29 L 1017.80 717.22 L 1023.82 717.15 L 1029.83 717.07 L 1035.84 717.00 L 1041.85 716.93 L 1047.86 716.86 L 1053.87 716.79 L 1059.88 716.72 L 1065.90 716.65 L 1071.91 716.58 L 1077.92 716.51 L 1083.93 716.44 L 1089.94 716.36 L 1095.95 716.29 L 1101.97 716.22 L 1107.98 716.15 L 1113.99 716.08 L 1120.00 716.01" fill="none" stroke="#facc15" stroke-width="2" />
    <text x="80" y="860" fill="#94a3b8" font-size="12" font-family="Arial">695</text>
    <text x="1080" y="860" fill="#94a3b8" font-size="12" font-family="Arial">868</text>
  
</svg>